<svg id="MDU" xmlns="http://www.w3.org/2000/svg" viewBox="0 0 590.42 375.13"><defs><style>.cls-1{isolation:isolate;}.cls-2{fill:#ff4800;}</style></defs><title>_MDU_engelsk_logotyp1_RGB</title><path d="M318,435.73h14.65l11.34,33c1.58,4.6,2.38,7.76,2.38,7.76h.14s.72-3.16,2.3-7.83l11.41-33h14.58v54.93h-10V446.21h-.22s-1,4.24-3.15,10.56L349.9,490.66H342l-11.41-33.89c-2.16-6.32-3.16-10.56-3.16-10.56h-.22v44.45H318Z" transform="translate(-318.02 -233.44)"/><path d="M382.52,463.3c.29-7.33,6.1-11.92,15.8-11.92,11.35,0,15.73,4.67,15.73,14.87v14.07c0,2.44.71,3.38,3.23,3.38v7h-2.73c-5.68,0-8.12-1.43-9.12-5.82h-.22C403,488.8,399,491,393.43,491c-7.82,0-12.63-4.16-12.63-11.2a10.09,10.09,0,0,1,5.74-9.63c4-2.08,9.84-2.58,18.1-2.94v-1.94c0-5.17-2-7.54-6.39-7.54s-6.32,2.51-6.47,5.53Zm4.6-27.57h8.69v8.83h-8.69Zm17.59,38.2v-1.08c-6.75.36-10.34.94-12.35,2.37a4.69,4.69,0,0,0-1.94,4.17c0,3.16,2.08,5.17,5.6,5.17,4.24,0,8.69-3.16,8.69-10.63m-2.94-38.2h8.61v8.83h-8.61Z" transform="translate(-318.02 -233.44)"/><rect x="105.29" y="202.14" width="9.69" height="54.94"/><path d="M439.34,463.3c.29-7.32,6.11-11.92,15.8-11.92,11.35,0,15.73,4.67,15.73,14.87v14.07c0,2.44.72,3.38,3.23,3.38v7h-2.73c-5.67,0-8.11-1.43-9.12-5.81H462c-2.23,3.94-6.25,6.17-11.78,6.17-7.83,0-12.64-4.17-12.64-11.2a10.09,10.09,0,0,1,5.74-9.63c4-2.08,9.84-2.58,18.1-2.94v-1.94c0-5.17-2-7.54-6.39-7.54s-6.32,2.52-6.46,5.53Zm22.19,10.63v-1.08c-6.75.36-10.34.94-12.35,2.37a4.7,4.7,0,0,0-1.94,4.17c0,3.16,2.08,5.17,5.6,5.17,4.24,0,8.69-3.16,8.69-10.63" transform="translate(-318.02 -233.44)"/><path d="M479.85,452.24H489V460h.14a13.47,13.47,0,0,1,12.49-8.4h.65v9h-1.79c-6.82,0-11,2.87-11,10.26v19.61h-9.62Z" transform="translate(-318.02 -233.44)"/><path d="M539.79,490.52h-9.26v-5.89h-.22a12.81,12.81,0,0,1-11.63,6.82c-9.41,0-16-5.89-16-19.68,0-13.35,7-20.39,16.66-20.39,5.18,0,8.91,2.66,10.63,6.18h.15v-22h9.69Zm-9.55-20.76c0-7.18-3.45-11.48-8.69-11.48-5.82,0-9,4.59-9,13.21,0,8,2.44,13.21,8.69,13.21,5.75,0,9-4.52,9-10.56Z" transform="translate(-318.02 -233.44)"/><path d="M546.77,463.3c.29-7.32,6.1-11.92,15.8-11.92,11.35,0,15.73,4.67,15.73,14.87v14.07c0,2.44.72,3.38,3.23,3.38v7H578.8c-5.68,0-8.12-1.43-9.12-5.81h-.22c-2.22,3.94-6.24,6.17-11.78,6.17-7.82,0-12.63-4.17-12.63-11.2a10.08,10.08,0,0,1,5.74-9.63c4-2.08,9.84-2.58,18.1-2.94v-1.94c0-5.17-2-7.54-6.39-7.54s-6.32,2.52-6.46,5.53ZM569,473.93v-1.08c-6.75.36-10.34.94-12.35,2.37a4.68,4.68,0,0,0-1.94,4.17c0,3.16,2.08,5.17,5.6,5.17,4.24,0,8.69-3.16,8.69-10.63" transform="translate(-318.02 -233.44)"/><rect x="269.26" y="202.14" width="9.69" height="54.94"/><path d="M620.9,491.45c-12.07,0-18.32-8-18.32-20,0-11.64,6.68-20.11,18.24-20.11,12.57,0,17.67,8.62,17.67,19.32v3.08H612.35c.43,7.26,3.23,11.06,8.91,11.06,5.17,0,6.67-2.73,7.32-5h9.48c-1.22,7.32-7.32,11.7-17.16,11.7m7.75-24.2c-.36-5.74-2.59-9.62-7.9-9.62-5,0-7.68,3.81-8.33,10.05h16.23Z" transform="translate(-318.02 -233.44)"/><path d="M668.74,467.75c0-2.72-.07-5.24-1.22-6.82a6.21,6.21,0,0,0-5.32-2.3c-5.74,0-8.61,3.67-8.61,9.48v22.41h-9.7V452.24h9.26v6.39h.15a13.35,13.35,0,0,1,12.42-7.25c8.55,0,12.71,4.38,12.71,13.65v25.49h-9.69Z" transform="translate(-318.02 -233.44)"/><path d="M485.9,461.4h0Z" transform="translate(-318.02 -233.44)"/><g class="cls-1"><rect class="cls-2" x="76.93" y="3.85" width="56.69" height="170.08"/><path class="cls-2" d="M495.74,233.44c-16.14,0-30.17,4.42-41.55,8.79v.56c16.24-2.32,54.16.3,54.16,65.42v99.16H565V302.08c0-60.5-35.46-68.66-69.3-68.64" transform="translate(-318.02 -233.44)"/><path class="cls-2" d="M609.64,233.44h0c-20.51.06-41.4,3-58.36,11.67v.56c28-2.71,70.46-3.93,70.46,64.81v96.89h56.69V302.07c0-60.19-35.11-68.48-68.79-68.63" transform="translate(-318.02 -233.44)"/></g><g class="cls-1"><path class="cls-2" d="M905.2,435.73v80c0,70.39-29.26,92.82-70.87,92.82-44.63,0-70.86-11.09-70.86-81.48V435.73h-56.7v80c0,70.39,29.26,92.82,70.87,92.82,44.63,0,70.87-11.09,70.87-81.48V435.73Z" transform="translate(-318.02 -233.44)"/></g><rect class="cls-2" x="388.76" y="3.85" width="56.69" height="170.08"/><path class="cls-2" d="M766,407.09c51.86,0,82.32-32.89,82.32-84.68S817.88,237.58,766,237.58V237a207.21,207.21,0,0,1,32.91-2.38c49.58,0,109.51,18.34,109.51,87.63S848.51,410,798.93,410A207.21,207.21,0,0,1,766,407.66Z" transform="translate(-318.02 -233.44)"/><polyline class="cls-2" points="133.63 173.93 133.63 3.85 76.93 3.85"/><path d="M430,536.28c0-2.73-.08-5.24-1.22-6.82a6.23,6.23,0,0,0-5.32-2.3c-5.74,0-8.62,3.66-8.62,9.48V559H405.1V520.77h9.26v6.39h.15a13.35,13.35,0,0,1,12.42-7.25c8.54,0,12.71,4.38,12.71,13.64V559H430Z" transform="translate(-318.02 -233.44)"/><path d="M446.84,504.32h9.84v9.12h-9.84Zm.08,16.45h9.69v38.28h-9.69Z" transform="translate(-318.02 -233.44)"/><path d="M460.21,520.77H470L476.8,542a76.21,76.21,0,0,1,2.09,7.69H479s.86-3.81,2.08-7.69l7-21.18h9.26L483.84,559h-10Z" transform="translate(-318.02 -233.44)"/><path d="M516.24,560c-12.06,0-18.31-8.05-18.31-20,0-11.63,6.68-20.1,18.24-20.1,12.57,0,17.67,8.61,17.67,19.31v3.09H507.69c.44,7.25,3.24,11.06,8.91,11.06,5.17,0,6.68-2.73,7.33-5h9.48c-1.22,7.33-7.33,11.71-17.17,11.71m7.76-24.2c-.36-5.75-2.59-9.63-7.9-9.63-5,0-7.69,3.81-8.33,10.06H524Z" transform="translate(-318.02 -233.44)"/><path d="M539.52,520.77h9.12v7.75h.14a13.49,13.49,0,0,1,12.5-8.4h.65v9h-1.8c-6.82,0-11,2.87-11,10.27V559h-9.62Z" transform="translate(-318.02 -233.44)"/><path d="M585.28,531c-.21-2.73-2.37-4.74-6.24-4.74s-6,2-6,4.74c0,2.51,1.44,3.8,4.89,4.3l6.25.87c7.39,1,11,4.38,11,11.2,0,8.26-6.68,12.64-16,12.64-10.05,0-15.66-4.31-16.16-12h9c.28,2.73,1.93,5.53,7.25,5.53,4.24,0,7-1.87,7-5,0-2.59-1-4-5.1-4.53l-6-.78c-7-.94-11-4.31-11-11.14,0-6.67,5.1-12.28,15.15-12.28,9.55,0,14.29,4.45,14.86,11.21Z" transform="translate(-318.02 -233.44)"/><path d="M601,504.32h9.84v9.12H601Zm.07,16.45h9.69v38.28H601Z" transform="translate(-318.02 -233.44)"/><path d="M630.83,509.92v10.85h8.91v6.89H631v18.89c0,4,1.5,5.6,5.38,5.6a28.76,28.76,0,0,0,3.59-.29v7.25a48.09,48.09,0,0,1-7,.51c-7.55,0-11.57-3.37-11.57-11.35V527.66h-6.17v-6.75h1.29c5,0,5.89-1.08,5.89-8.19v-2.8Z" transform="translate(-318.02 -233.44)"/><path d="M353.88,504.11h10V536c0,4.31.07,9.33,2.3,12.21s5.45,4,9.62,4,7.61-1.22,9.76-4,2.16-7.9,2.16-12.21V504.11h9.84v36c0,13.86-8.76,20-21.9,20s-21.76-6-21.76-20Z" transform="translate(-318.02 -233.44)"/><path d="M642.79,520.77h9.83l6.9,21.47a52.77,52.77,0,0,1,1.79,7h.15a71,71,0,0,1,1.79-7l6.61-21.47h9.48l-13.65,39.92c-3,8.84-6.32,12.64-15.72,12.64a20.12,20.12,0,0,1-5-.5v-7.25a18.17,18.17,0,0,0,3.73.35c4.46,0,6-1.5,7.54-5.45l.51-1.29Z" transform="translate(-318.02 -233.44)"/></svg>